<svg width="32" height="33" viewBox="0 0 32 33" fill="none" xmlns="http://www.w3.org/2000/svg">
<path d="M26 5.27783H22.5V3.77783C22.5 3.64522 22.4473 3.51805 22.3536 3.42428C22.2598 3.33051 22.1326 3.27783 22 3.27783C21.8674 3.27783 21.7402 3.33051 21.6464 3.42428C21.5527 3.51805 21.5 3.64522 21.5 3.77783V5.27783L10.5 5.27783V3.77783C10.5 3.64522 10.4473 3.51805 10.3536 3.42428C10.2598 3.33051 10.1326 3.27783 10 3.27783C9.86739 3.27783 9.74021 3.33051 9.64645 3.42428C9.55268 3.51805 9.5 3.64522 9.5 3.77783V5.27783L6 5.27783C5.60218 5.27783 5.22064 5.43587 4.93934 5.71717C4.65804 5.99848 4.5 6.38001 4.5 6.77783L4.5 26.7778C4.5 27.1757 4.65804 27.5572 4.93934 27.8385C5.22064 28.1198 5.60218 28.2778 6 28.2778L26 28.2778C26.3978 28.2778 26.7794 28.1198 27.0607 27.8385C27.342 27.5572 27.5 27.1757 27.5 26.7778L27.5 6.77783C27.5 6.38001 27.342 5.99848 27.0607 5.71717C26.7794 5.43587 26.3978 5.27783 26 5.27783ZM6 6.27783L9.5 6.27783V7.77783C9.5 7.91044 9.55268 8.03762 9.64645 8.13139C9.74021 8.22515 9.86739 8.27783 10 8.27783C10.1326 8.27783 10.2598 8.22515 10.3536 8.13139C10.4473 8.03762 10.5 7.91044 10.5 7.77783V6.27783L21.5 6.27783V7.77783C21.5 7.91044 21.5527 8.03762 21.6464 8.13139C21.7402 8.22515 21.8674 8.27783 22 8.27783C22.1326 8.27783 22.2598 8.22515 22.3536 8.13139C22.4473 8.03762 22.5 7.91044 22.5 7.77783V6.27783H26C26.1326 6.27783 26.2598 6.33051 26.3536 6.42428C26.4473 6.51805 26.5 6.64522 26.5 6.77783V11.2778L5.5 11.2778L5.5 6.77783C5.5 6.64522 5.55268 6.51805 5.64645 6.42428C5.74021 6.33051 5.86739 6.27783 6 6.27783ZM26 27.2778L6 27.2778C5.86739 27.2778 5.74021 27.2252 5.64645 27.1314C5.55268 27.0376 5.5 26.9104 5.5 26.7778L5.5 12.2778L26.5 12.2778L26.5 26.7778C26.5 26.9104 26.4473 27.0376 26.3536 27.1314C26.2598 27.2252 26.1326 27.2778 26 27.2778ZM19.5 19.7778C19.5 19.9104 19.4473 20.0376 19.3536 20.1314C19.2598 20.2252 19.1326 20.2778 19 20.2778H16.5V22.7778C16.5 22.9104 16.4473 23.0376 16.3536 23.1314C16.2598 23.2252 16.1326 23.2778 16 23.2778C15.8674 23.2778 15.7402 23.2252 15.6464 23.1314C15.5527 23.0376 15.5 22.9104 15.5 22.7778V20.2778H13C12.8674 20.2778 12.7402 20.2252 12.6464 20.1314C12.5527 20.0376 12.5 19.9104 12.5 19.7778C12.5 19.6452 12.5527 19.518 12.6464 19.4243C12.7402 19.3305 12.8674 19.2778 13 19.2778H15.5V16.7778C15.5 16.6452 15.5527 16.518 15.6464 16.4243C15.7402 16.3305 15.8674 16.2778 16 16.2778C16.1326 16.2778 16.2598 16.3305 16.3536 16.4243C16.4473 16.518 16.5 16.6452 16.5 16.7778V19.2778H19C19.1326 19.2778 19.2598 19.3305 19.3536 19.4243C19.4473 19.518 19.5 19.6452 19.5 19.7778Z" fill="currentColor"/>
</svg>
