<svg width="100%" height="100%" viewBox="0 0 277 52" fill="none" xmlns="http://www.w3.org/2000/svg">
<path d="M17.4582 38.6818V20.8078L18.2197 24.3391L0 0.651938H8.86509L22.3531 18.7976L19.8513 18.7433L32.6322 0.651938H40.8991L24.0391 23.7958L24.5286 20.3731V38.6818H17.4582Z" fill="#B73D25"/>
<path d="M41.8134 38.6818L58.7822 0.651938H65.9069L82.8213 38.6818H75.3702L64.9279 15.2119C64.6379 14.6324 64.3297 13.9443 64.0033 13.1475C63.7133 12.3506 63.4051 11.5357 63.0788 10.7027C62.7525 9.83343 62.4443 9.0004 62.1542 8.20358C61.8641 7.37055 61.6103 6.62806 61.3928 5.97612L63.0244 5.92179C62.7706 6.68239 62.4986 7.4792 62.2086 8.31224C61.9185 9.10906 61.6103 9.92398 61.284 10.757C60.9577 11.59 60.6314 12.3869 60.305 13.1475C59.9787 13.9081 59.6705 14.6505 59.3805 15.3749L48.9925 38.6818H41.8134ZM49.4276 30.3152L51.9294 24.1761H72.2702L74.0106 30.3152H49.4276Z" fill="#B73D25"/>
<path d="M108.019 39.2251C105.445 39.2251 103.07 38.9534 100.894 38.4101C98.7551 37.8306 96.7972 37.0157 95.0205 35.9654C93.2802 34.915 91.7029 33.593 90.2889 31.9994L94.4767 26.4579C96.6884 28.8846 98.9001 30.605 101.112 31.6191C103.36 32.597 105.771 33.086 108.345 33.086C109.832 33.086 111.228 32.9049 112.533 32.5427C113.875 32.1443 114.962 31.5829 115.796 30.8585C116.667 30.0979 117.102 29.1743 117.102 28.0878C117.102 27.3634 116.884 26.7477 116.449 26.2406C116.05 25.6973 115.488 25.2446 114.763 24.8824C114.074 24.484 113.276 24.158 112.37 23.9045C111.464 23.6509 110.521 23.4336 109.542 23.2525C108.563 23.0714 107.584 22.9085 106.605 22.7636C104.321 22.4014 102.29 21.9305 100.514 21.351C98.737 20.7353 97.2323 19.9566 95.9995 19.0149C94.7667 18.0732 93.824 16.9686 93.1714 15.7009C92.555 14.4332 92.2468 12.9664 92.2468 11.3003C92.2468 9.56179 92.6456 8.00438 93.4433 6.62806C94.241 5.21552 95.365 4.0203 96.8153 3.04239C98.2656 2.06448 99.9335 1.32199 101.819 0.814925C103.741 0.271642 105.825 0 108.073 0C110.466 0 112.624 0.253532 114.545 0.760597C116.503 1.26766 118.226 2.01015 119.712 2.98806C121.199 3.92975 122.45 5.07065 123.465 6.41074L119.06 11.246C118.153 10.1594 117.102 9.23582 115.905 8.47522C114.745 7.71463 113.494 7.15323 112.152 6.79104C110.811 6.39264 109.397 6.19343 107.91 6.19343C106.315 6.19343 104.901 6.37453 103.668 6.73672C102.435 7.09891 101.456 7.62408 100.731 8.31224C100.006 9.0004 99.6434 9.83343 99.6434 10.8113C99.6434 11.6082 99.8791 12.3144 100.35 12.9301C100.822 13.5097 101.474 14.0167 102.308 14.4513C103.179 14.8498 104.194 15.1938 105.354 15.4836C106.514 15.7371 107.783 15.9725 109.161 16.1898C111.264 16.5158 113.24 16.9323 115.089 17.4394C116.939 17.9465 118.57 18.6165 119.984 19.4496C121.398 20.2464 122.486 21.2605 123.247 22.4919C124.045 23.6872 124.444 25.1903 124.444 27.0012C124.444 29.5003 123.755 31.6734 122.377 33.5206C120.999 35.3315 119.078 36.7441 116.612 37.7582C114.183 38.7361 111.319 39.2251 108.019 39.2251ZM104.212 51.9922L103.831 48.7869C104.738 48.7506 105.644 48.642 106.551 48.4609C107.493 48.2798 108.273 47.9901 108.889 47.5916C109.506 47.1932 109.814 46.7405 109.814 46.2334C109.814 45.7264 109.524 45.3099 108.944 44.9839C108.4 44.6941 107.747 44.4587 106.986 44.2776C106.261 44.1327 105.626 44.0603 105.082 44.0603L104.321 43.191L108.128 37.3779H111.772L109.379 41.1266C111.047 41.4163 112.37 41.9777 113.349 42.8107C114.364 43.68 114.872 44.8209 114.872 46.2334C114.872 47.2476 114.545 48.1168 113.893 48.8412C113.24 49.6018 112.37 50.2175 111.282 50.6884C110.231 51.1592 109.071 51.5033 107.801 51.7206C106.569 51.9379 105.372 52.0285 104.212 51.9922Z" fill="#B73D25"/>
<path d="M132.317 38.6818L149.286 0.651938H156.41L173.325 38.6818H165.874L155.431 15.2119C155.141 14.6324 154.833 13.9443 154.507 13.1475C154.217 12.3506 153.909 11.5357 153.582 10.7027C153.256 9.83343 152.948 9.0004 152.658 8.20358C152.368 7.37055 152.114 6.62806 151.896 5.97612L153.528 5.92179C153.274 6.68239 153.002 7.4792 152.712 8.31224C152.422 9.10906 152.114 9.92398 151.787 10.757C151.461 11.59 151.135 12.3869 150.808 13.1475C150.482 13.9081 150.174 14.6505 149.884 15.3749L139.496 38.6818H132.317ZM139.931 30.3152L142.433 24.1761H162.774L164.514 30.3152H139.931Z" fill="#B73D25"/>
<path d="M183.947 38.6818V0.651938H190.636L206.463 22.6006L202.928 22.5463L218.809 0.651938H225.39V38.6818H218.374V24.0675C218.374 20.9526 218.446 18.0913 218.591 15.4836C218.736 12.8396 219.026 10.1775 219.461 7.49731L220.223 9.99642L206.354 28.3594H202.765L189.114 9.99642L189.875 7.49731C190.31 10.1051 190.6 12.7128 190.745 15.3206C190.89 17.9284 190.963 20.844 190.963 24.0675V38.6818H183.947Z" fill="#B73D25"/>
<path d="M235.992 38.6818L252.961 0.651938H260.086L277 38.6818H269.549L259.107 15.2119C258.817 14.6324 258.508 13.9443 258.182 13.1475C257.892 12.3506 257.584 11.5357 257.258 10.7027C256.931 9.83343 256.623 9.0004 256.333 8.20358C256.043 7.37055 255.789 6.62806 255.572 5.97612L257.203 5.92179C256.949 6.68239 256.677 7.4792 256.387 8.31224C256.097 9.10906 255.789 9.92398 255.463 10.757C255.136 11.59 254.81 12.3869 254.484 13.1475C254.157 13.9081 253.849 14.6505 253.559 15.3749L243.171 38.6818H235.992ZM243.606 30.3152L246.108 24.1761H266.449L268.189 30.3152H243.606Z" fill="#B73D25"/>
</svg>
